<svg width="102" height="102" viewBox="0 0 102 102" fill="none" xmlns="http://www.w3.org/2000/svg">
    <path d="M26.4923 21.1125V20.1125H25.4822L25.4923 21.1225L26.4923 21.1125ZM75.5077 21.1125H76.5077V20.1125H75.5077V21.1125ZM27.09 80.8875L26.0901 80.8975L26.1 81.8875H27.09V80.8875ZM75.5077 80.8875V81.8875H76.5077V80.8875H75.5077ZM51.2953 65.9437L50.7701 66.7947L50.7701 66.7947L51.2953 65.9437ZM100 51C100 77.1881 77.1881 100 51 100V102C78.2927 102 102 78.2927 102 51H100ZM51 100C24.8119 100 2 77.1881 2 51H0C0 78.2927 23.7073 102 51 102V100ZM2 51C2 24.8119 24.8119 2 51 2V0C23.7073 0 0 23.7073 0 51H2ZM51 2C77.1881 2 100 24.8119 100 51H102C102 23.7073 78.2927 0 51 0V2ZM26.4923 22.1125H75.5077V20.1125H26.4923V22.1125ZM27.09 81.8875H75.5077V79.8875H27.09V81.8875ZM50.2953 37.4977V65.0003H52.2953V37.4977H50.2953ZM50.4154 36.5315L74.6279 81.3627L76.3876 80.4123L52.1752 35.5811L50.4154 36.5315ZM74.5077 21.1125V80.8875H76.5077V21.1125H74.5077ZM25.4923 21.1225L25.7912 51.01L27.7911 50.99L27.4922 21.1025L25.4923 21.1225ZM25.7912 51.01L26.0901 80.8975L28.09 80.8775L27.7911 50.99L25.7912 51.01ZM26.7911 52H27.0828V50H26.7911V52ZM74.9825 20.2615L50.7701 35.2053L51.8205 36.9072L76.0329 21.9635L74.9825 20.2615ZM50.7701 35.2053L26.5576 50.149L27.608 51.851L51.8205 36.9072L50.7701 35.2053ZM50.2953 36.0563V37.4977H52.2953V36.0563H50.2953ZM26.5576 51.851L50.7701 66.7947L51.8205 65.0928L27.608 50.149L26.5576 51.851ZM50.7701 66.7947L74.9825 81.7384L76.0329 80.0365L51.8205 65.0928L50.7701 66.7947ZM50.2953 65.0003V65.9437H52.2953V65.0003H50.2953Z" fill="white"/>
</svg>
