<svg width="302" height="302" viewBox="0 0 302 302" fill="none" xmlns="http://www.w3.org/2000/svg">
<path d="M77.4768 61.3376V60.3376H76.4667L76.4768 61.3476L77.4768 61.3376ZM224.523 61.3376H225.523V60.3376H224.523V61.3376ZM79.27 240.662L78.2701 240.672L78.28 241.662H79.27V240.662ZM224.523 240.662V241.662H225.523V240.662H224.523ZM151.886 195.831L151.361 196.682L151.361 196.682L151.886 195.831ZM300 151C300 230.669 230.669 300 151 300V302C231.773 302 302 231.773 302 151H300ZM151 300C71.3312 300 2 230.669 2 151H0C0 231.773 70.2266 302 151 302V300ZM2 151C2 71.3312 71.3312 2 151 2V0C70.2266 0 0 70.2266 0 151H2ZM151 2C230.669 2 300 71.3312 300 151H302C302 70.2266 231.773 0 151 0V2ZM77.4768 62.3376H224.523V60.3376H77.4768V62.3376ZM79.27 241.662H224.523V239.662H79.27V241.662ZM150.886 110.493V193.001H152.886V110.493H150.886ZM151.006 106.644L223.643 241.138L225.403 240.187L152.766 105.694L151.006 106.644ZM223.523 61.3376V240.662H225.523V61.3376H223.523ZM76.4768 61.3476L77.3735 151.01L79.3734 150.99L78.4767 61.3276L76.4768 61.3476ZM77.3735 151.01L78.2701 240.672L80.27 240.652L79.3734 150.99L77.3735 151.01ZM78.3734 152H79.2484V150H78.3734V152ZM223.998 60.4866L151.361 105.318L152.411 107.02L225.048 62.1885L223.998 60.4866ZM151.361 105.318L78.7232 150.149L79.7737 151.851L152.411 107.02L151.361 105.318ZM150.886 106.169V110.493H152.886V106.169H150.886ZM78.7232 151.851L151.361 196.682L152.411 194.98L79.7737 150.149L78.7232 151.851ZM151.361 196.682L223.998 241.513L225.048 239.811L152.411 194.98L151.361 196.682ZM150.886 193.001V195.831H152.886V193.001H150.886Z" fill="white"/>
</svg>
